<svg width="58" height="20" viewBox="0 0 58 20" fill="none" xmlns="http://www.w3.org/2000/svg">
<rect x="0.5" y="0.0909424" width="57" height="19.0909" fill="#912A66"/>
<path d="M18.374 13.8183C17.776 13.8183 17.2387 13.7143 16.762 13.5063C16.294 13.2896 15.9257 12.995 15.657 12.6223C15.3883 12.241 15.2497 11.8033 15.241 11.3093H16.502C16.5453 11.734 16.7187 12.0936 17.022 12.3883C17.334 12.6743 17.7847 12.8173 18.374 12.8173C18.9373 12.8173 19.3793 12.6786 19.7 12.4013C20.0293 12.1153 20.194 11.7513 20.194 11.3093C20.194 10.9626 20.0987 10.681 19.908 10.4643C19.7173 10.2476 19.479 10.083 19.193 9.97029C18.907 9.85763 18.5213 9.73629 18.036 9.60629C17.438 9.45029 16.957 9.29429 16.593 9.13829C16.2377 8.98229 15.93 8.73963 15.67 8.41029C15.4187 8.07229 15.293 7.62163 15.293 7.05829C15.293 6.56429 15.4187 6.12663 15.67 5.74529C15.9213 5.36396 16.2723 5.06929 16.723 4.86129C17.1823 4.65329 17.7067 4.54929 18.296 4.54929C19.1453 4.54929 19.8387 4.76163 20.376 5.18629C20.922 5.61096 21.2297 6.17429 21.299 6.87629H19.999C19.9557 6.52963 19.7737 6.22629 19.453 5.96629C19.1323 5.69763 18.7077 5.56329 18.179 5.56329C17.685 5.56329 17.282 5.69329 16.97 5.95329C16.658 6.20463 16.502 6.55996 16.502 7.01929C16.502 7.34863 16.593 7.61729 16.775 7.82529C16.9657 8.03329 17.1953 8.19363 17.464 8.30629C17.7413 8.41029 18.127 8.53163 18.621 8.67029C19.219 8.83496 19.7 8.99963 20.064 9.16429C20.428 9.32029 20.74 9.56729 21 9.90529C21.26 10.2346 21.39 10.6853 21.39 11.2573C21.39 11.6993 21.273 12.1153 21.039 12.5053C20.805 12.8953 20.4583 13.2116 19.999 13.4543C19.5397 13.697 18.998 13.8183 18.374 13.8183ZM28.4869 11.7123H24.5349L23.8069 13.7273H22.5589L25.8349 4.71829H27.1999L30.4629 13.7273H29.2149L28.4869 11.7123ZM28.1489 10.7503L26.5109 6.17429L24.8729 10.7503H28.1489ZM33.0736 12.7653H36.2456V13.7273H31.8906V4.66629H33.0736V12.7653ZM38.685 5.62829V8.65729H41.987V9.63229H38.685V12.7523H42.377V13.7273H37.502V4.65329H42.377V5.62829H38.685Z" fill="white"/>
</svg>
