<svg width="101" height="20" viewBox="0 0 101 20" fill="none" xmlns="http://www.w3.org/2000/svg">
<path d="M11.6281 4.12281C11.1753 3.17391 9.82461 3.17391 9.37182 4.12281L7.98228 7.03482L4.78339 7.45649C3.74101 7.5939 3.32362 8.87849 4.08616 9.60235L6.42626 11.8237L5.83879 14.9964C5.64735 16.0302 6.74009 16.8241 7.66416 16.3226L10.5 14.7835L13.3358 16.3226C14.2598 16.8241 15.3526 16.0302 15.1611 14.9964L14.5737 11.8237L16.9138 9.60235C17.6763 8.87849 17.2589 7.5939 16.2165 7.45649L13.0176 7.03482L11.6281 4.12281Z" fill="#F2C94C"/>
<path d="M31.6281 4.12281C31.1753 3.17391 29.8246 3.17391 29.3718 4.12281L27.9823 7.03482L24.7834 7.45649C23.741 7.5939 23.3237 8.87849 24.0862 9.60235L26.4263 11.8237L25.8388 14.9964C25.6474 16.0302 26.7401 16.8241 27.6642 16.3226L30.5 14.7835L33.3358 16.3226C34.2599 16.8241 35.3526 16.0302 35.1612 14.9964L34.5737 11.8237L36.9138 9.60235C37.6763 8.87849 37.2589 7.5939 36.2166 7.45649L33.0177 7.03482L31.6281 4.12281Z" fill="#F2C94C"/>
<path d="M51.6281 4.12281C51.1753 3.17391 49.8246 3.17391 49.3718 4.12281L47.9823 7.03482L44.7834 7.45649C43.741 7.5939 43.3237 8.87849 44.0862 9.60235L46.4263 11.8237L45.8388 14.9964C45.6474 16.0302 46.7401 16.8241 47.6642 16.3226L50.5 14.7835L53.3358 16.3226C54.2599 16.8241 55.3526 16.0302 55.1612 14.9964L54.5737 11.8237L56.9138 9.60235C57.6763 8.87849 57.2589 7.5939 56.2166 7.45649L53.0177 7.03482L51.6281 4.12281Z" fill="#F2C94C"/>
<path d="M71.6281 4.12281C71.1753 3.17391 69.8246 3.17391 69.3718 4.12281L67.9823 7.03482L64.7834 7.45649C63.741 7.5939 63.3237 8.87849 64.0862 9.60235L66.4263 11.8237L65.8388 14.9964C65.6474 16.0302 66.7401 16.8241 67.6642 16.3226L70.5 14.7835L73.3358 16.3226C74.2599 16.8241 75.3526 16.0302 75.1612 14.9964L74.5737 11.8237L76.9138 9.60235C77.6763 8.87849 77.2589 7.5939 76.2166 7.45649L73.0177 7.03482L71.6281 4.12281Z" fill="#F2C94C"/>
<path d="M91.6281 4.12281C91.1753 3.17391 89.8246 3.17391 89.3718 4.12281L87.9823 7.03482L84.7834 7.45649C83.741 7.5939 83.3237 8.87849 84.0862 9.60235L86.4263 11.8237L85.8388 14.9964C85.6474 16.0302 86.7401 16.8241 87.6642 16.3226L90.5 14.7835L93.3358 16.3226C94.2599 16.8241 95.3526 16.0302 95.1612 14.9964L94.5737 11.8237L96.9138 9.60235C97.6763 8.87849 97.2589 7.5939 96.2166 7.45649L93.0177 7.03482L91.6281 4.12281Z" fill="#F2C94C"/>
</svg>
