<svg width="387" height="39" viewBox="0 0 387 39" fill="none" xmlns="http://www.w3.org/2000/svg">
<path d="M305.687 7.75009C305.563 7.74834 305.44 7.77129 305.325 7.81761C305.209 7.86394 305.104 7.93271 305.016 8.01994C304.927 8.10717 304.857 8.21112 304.809 8.32573C304.761 8.44035 304.737 8.56335 304.737 8.68759C304.737 8.81184 304.761 8.93484 304.809 9.04946C304.857 9.16407 304.927 9.26801 305.016 9.35524C305.104 9.44247 305.209 9.51125 305.325 9.55757C305.44 9.6039 305.563 9.62685 305.687 9.62509H307.41C307.865 9.62509 308.244 9.93942 308.33 10.3868L308.517 11.3634L310.532 21.9481C310.897 23.8578 312.579 25.2501 314.524 25.2501H326.226C328.171 25.2501 329.854 23.8583 330.218 21.9481L332.233 11.3634C332.259 11.2279 332.254 11.0883 332.22 10.9547C332.186 10.821 332.122 10.6966 332.035 10.5903C331.947 10.4839 331.836 10.3983 331.712 10.3395C331.587 10.2807 331.45 10.2502 331.312 10.2501H310.213L310.172 10.0365C309.92 8.71605 308.754 7.75009 307.41 7.75009H305.687ZM310.57 12.1251H330.18L328.375 21.5977C328.178 22.635 327.282 23.3751 326.226 23.3751H314.524C313.468 23.3751 312.573 22.635 312.374 21.5977L310.57 12.1251ZM316 26.5001C315.503 26.5001 315.026 26.6976 314.674 27.0493C314.323 27.4009 314.125 27.8778 314.125 28.3751C314.125 28.8724 314.323 29.3493 314.674 29.7009C315.026 30.0525 315.503 30.2501 316 30.2501C316.497 30.2501 316.974 30.0525 317.326 29.7009C317.677 29.3493 317.875 28.8724 317.875 28.3751C317.875 27.8778 317.677 27.4009 317.326 27.0493C316.974 26.6976 316.497 26.5001 316 26.5001ZM324.75 26.5001C324.253 26.5001 323.776 26.6976 323.424 27.0493C323.073 27.4009 322.875 27.8778 322.875 28.3751C322.875 28.8724 323.073 29.3493 323.424 29.7009C323.776 30.0525 324.253 30.2501 324.75 30.2501C325.247 30.2501 325.724 30.0525 326.076 29.7009C326.427 29.3493 326.625 28.8724 326.625 28.3751C326.625 27.8778 326.427 27.4009 326.076 27.0493C325.724 26.6976 325.247 26.5001 324.75 26.5001Z" fill="#912A66"/>
<path d="M367.5 6.5C364.059 6.5 361.25 9.30933 361.25 12.75C361.25 16.1907 364.059 19 367.5 19C370.941 19 373.75 16.1907 373.75 12.75C373.75 9.30933 370.941 6.5 367.5 6.5ZM367.5 8.375C369.927 8.375 371.875 10.3226 371.875 12.75C371.875 15.1774 369.927 17.125 367.5 17.125C365.073 17.125 363.125 15.1774 363.125 12.75C363.125 10.3226 365.073 8.375 367.5 8.375ZM359.987 21.5C358.624 21.5 357.5 22.6242 357.5 23.9866V24.9375C357.5 27.1901 358.925 28.9326 360.817 29.9766C362.709 31.0205 365.105 31.5 367.5 31.5C369.895 31.5 372.291 31.0205 374.183 29.9766C375.797 29.0865 377.011 27.6641 377.351 25.875H377.501V23.9866C377.501 22.6242 376.376 21.5 375.013 21.5H359.987ZM359.987 23.375H375.013C375.362 23.375 375.626 23.6377 375.626 23.9866V24L375.625 24.9375C375.625 26.4349 374.784 27.5049 373.278 28.3359C371.771 29.167 369.636 29.625 367.5 29.625C365.364 29.625 363.229 29.167 361.722 28.3359C360.216 27.5049 359.375 26.4349 359.375 24.9375V23.9866C359.375 23.6377 359.638 23.375 359.987 23.375Z" fill="#912A66"/>
</svg>
