<svg width="40" height="41" viewBox="0 0 40 41" fill="none" xmlns="http://www.w3.org/2000/svg">
<path d="M7.91666 6.33337C5.39166 6.33337 3.33333 8.39171 3.33333 10.9167V26.75C3.33333 29.275 5.39166 31.3334 7.91666 31.3334H22.5V29.9336C22.25 29.5836 22.0341 29.2167 21.8424 28.8334H7.91666C6.76666 28.8334 5.83333 27.9 5.83333 26.75V10.9167C5.83333 9.76671 6.76666 8.83337 7.91666 8.83337H32.0833C33.2333 8.83337 34.1667 9.76671 34.1667 10.9167V16.4994C35.1083 16.9827 35.95 17.6161 36.6667 18.3744V10.9167C36.6667 8.39171 34.6083 6.33337 32.0833 6.33337H7.91666ZM11.25 13C11.0844 12.9977 10.9199 13.0283 10.7662 13.0901C10.6125 13.1518 10.4726 13.2435 10.3546 13.3598C10.2367 13.4761 10.143 13.6147 10.0791 13.7676C10.0151 13.9204 9.98219 14.0844 9.98219 14.25C9.98219 14.4157 10.0151 14.5797 10.0791 14.7325C10.143 14.8853 10.2367 15.0239 10.3546 15.1402C10.4726 15.2565 10.6125 15.3482 10.7662 15.41C10.9199 15.4718 11.0844 15.5024 11.25 15.5H28.75C28.9156 15.5024 29.0801 15.4718 29.2338 15.41C29.3875 15.3482 29.5274 15.2565 29.6454 15.1402C29.7633 15.0239 29.857 14.8853 29.9209 14.7325C29.9849 14.5797 30.0178 14.4157 30.0178 14.25C30.0178 14.0844 29.9849 13.9204 29.9209 13.7676C29.857 13.6147 29.7633 13.4761 29.6454 13.3598C29.5274 13.2435 29.3875 13.1518 29.2338 13.0901C29.0801 13.0283 28.9156 12.9977 28.75 13H11.25ZM30 18C26.3329 18 23.3333 20.9996 23.3333 24.6667C23.3333 26.3452 23.9667 27.8795 25 29.0547V36.75C25 36.9763 25.0615 37.1982 25.1778 37.3923C25.294 37.5864 25.4608 37.7452 25.6602 37.852C25.8597 37.9587 26.0844 38.0093 26.3104 37.9984C26.5363 37.9875 26.7551 37.9155 26.9434 37.7901L30 35.7523L33.0566 37.7901C33.2449 37.9155 33.4637 37.9875 33.6896 37.9984C33.9156 38.0093 34.1403 37.9587 34.3397 37.852C34.5392 37.7452 34.706 37.5864 34.8222 37.3923C34.9385 37.1982 34.9999 36.9763 35 36.75V29.0547C36.0333 27.8795 36.6667 26.3452 36.6667 24.6667C36.6667 20.9996 33.6671 18 30 18ZM30 20.5C32.316 20.5 34.1667 22.3507 34.1667 24.6667C34.1667 26.9827 32.316 28.8334 30 28.8334C27.684 28.8334 25.8333 26.9827 25.8333 24.6667C25.8333 22.3507 27.684 20.5 30 20.5ZM11.25 22.1667C11.0844 22.1644 10.9199 22.195 10.7662 22.2567C10.6125 22.3185 10.4726 22.4102 10.3546 22.5265C10.2367 22.6428 10.143 22.7814 10.0791 22.9342C10.0151 23.087 9.98219 23.251 9.98219 23.4167C9.98219 23.5824 10.0151 23.7464 10.0791 23.8992C10.143 24.052 10.2367 24.1906 10.3546 24.3069C10.4726 24.4232 10.6125 24.5149 10.7662 24.5767C10.9199 24.6384 11.0844 24.669 11.25 24.6667H18.75C18.9156 24.669 19.0801 24.6384 19.2338 24.5767C19.3875 24.5149 19.5274 24.4232 19.6454 24.3069C19.7633 24.1906 19.857 24.052 19.9209 23.8992C19.9849 23.7464 20.0178 23.5824 20.0178 23.4167C20.0178 23.251 19.9849 23.087 19.9209 22.9342C19.857 22.7814 19.7633 22.6428 19.6454 22.5265C19.5274 22.4102 19.3875 22.3185 19.2338 22.2567C19.0801 22.195 18.9156 22.1644 18.75 22.1667H11.25ZM27.5 30.8402C28.2732 31.1557 29.1167 31.3334 30 31.3334C30.8833 31.3334 31.7268 31.1557 32.5 30.8402V34.4144L30.6934 33.21C30.488 33.0731 30.2468 33.0001 30 33.0001C29.7532 33.0001 29.512 33.0731 29.3066 33.21L27.5 34.4144V30.8402Z" fill="#912A66"/>
</svg>
