<svg width="40" height="41" viewBox="0 0 40 41" fill="none" xmlns="http://www.w3.org/2000/svg">
<path d="M2.91667 8.83338C2.75103 8.83103 2.58657 8.86164 2.43286 8.9234C2.27915 8.98517 2.13925 9.07687 2.02129 9.19318C1.90333 9.30948 1.80966 9.44807 1.74572 9.60089C1.68179 9.75372 1.64886 9.91772 1.64886 10.0834C1.64886 10.249 1.68179 10.413 1.74572 10.5659C1.80966 10.7187 1.90333 10.8573 2.02129 10.9736C2.13925 11.0899 2.27915 11.1816 2.43286 11.2434C2.58657 11.3051 2.75103 11.3357 2.91667 11.3334H15.4167C15.5823 11.3357 15.7468 11.3051 15.9005 11.2434C16.0542 11.1816 16.1941 11.0899 16.312 10.9736C16.43 10.8573 16.5237 10.7187 16.5876 10.5659C16.6515 10.413 16.6845 10.249 16.6845 10.0834C16.6845 9.91772 16.6515 9.75372 16.5876 9.60089C16.5237 9.44807 16.43 9.30948 16.312 9.19318C16.1941 9.07687 16.0542 8.98517 15.9005 8.9234C15.7468 8.86164 15.5823 8.83103 15.4167 8.83338H2.91667ZM20.4167 8.83338C20.251 8.83103 20.0866 8.86164 19.9329 8.9234C19.7792 8.98517 19.6393 9.07687 19.5213 9.19318C19.4033 9.30948 19.3097 9.44807 19.2457 9.60089C19.1818 9.75372 19.1489 9.91772 19.1489 10.0834C19.1489 10.249 19.1818 10.413 19.2457 10.5659C19.3097 10.7187 19.4033 10.8573 19.5213 10.9736C19.6393 11.0899 19.7792 11.1816 19.9329 11.2434C20.0866 11.3051 20.251 11.3357 20.4167 11.3334H22.9167C23.6221 11.3334 24.1667 11.878 24.1667 12.5834V28H14.821C14.2715 26.0847 12.4998 24.6667 10.4167 24.6667C8.33355 24.6667 6.56186 26.0847 6.01237 28H5.41667C4.71125 28 4.16667 27.4555 4.16667 26.75V25.0834C4.16907 24.9161 4.13786 24.75 4.07489 24.595C4.01192 24.44 3.91847 24.2991 3.80008 24.1809C3.68169 24.0627 3.54076 23.9694 3.38566 23.9066C3.23056 23.8439 3.06444 23.8129 2.89714 23.8155C2.5659 23.8207 2.25026 23.9571 2.01955 24.1948C1.78884 24.4326 1.66192 24.7521 1.66667 25.0834V26.75C1.66667 28.8063 3.36042 30.5 5.41667 30.5H6.01237C6.56186 32.4154 8.33355 33.8334 10.4167 33.8334C12.4998 33.8334 14.2715 32.4154 14.821 30.5H25.179C25.7285 32.4154 27.5002 33.8334 29.5833 33.8334C31.6664 33.8334 33.4381 32.4154 33.9876 30.5H34.5833C36.6396 30.5 38.3333 28.8063 38.3333 26.75V21.4473C38.3333 20.9211 38.2223 20.4043 38.0111 19.9271L38.0094 19.9255L35.5518 14.3949V14.3933C34.9516 13.042 33.604 12.1667 32.1257 12.1667H26.6243C26.4119 10.3056 24.8305 8.83338 22.9167 8.83338H20.4167ZM2.91667 13.8334C2.75103 13.831 2.58657 13.8616 2.43286 13.9234C2.27915 13.9852 2.13925 14.0769 2.02129 14.1932C1.90333 14.3095 1.80966 14.4481 1.74572 14.6009C1.68179 14.7537 1.64886 14.9177 1.64886 15.0834C1.64886 15.249 1.68179 15.413 1.74572 15.5659C1.80966 15.7187 1.90333 15.8573 2.02129 15.9736C2.13925 16.0899 2.27915 16.1816 2.43286 16.2434C2.58657 16.3051 2.75103 16.3357 2.91667 16.3334H12.0833C12.249 16.3357 12.4134 16.3051 12.5671 16.2434C12.7208 16.1816 12.8608 16.0899 12.9787 15.9736C13.0967 15.8573 13.1903 15.7187 13.2543 15.5659C13.3182 15.413 13.3511 15.249 13.3511 15.0834C13.3511 14.9177 13.3182 14.7537 13.2543 14.6009C13.1903 14.4481 13.0967 14.3095 12.9787 14.1932C12.8608 14.0769 12.7208 13.9852 12.5671 13.9234C12.4134 13.8616 12.249 13.831 12.0833 13.8334H2.91667ZM26.6667 14.6667H32.1257C32.6235 14.6667 33.0649 14.9543 33.2666 15.4089L34.7884 18.8334H26.6667V14.6667ZM2.91667 18.8334C2.75103 18.831 2.58657 18.8616 2.43286 18.9234C2.27915 18.9852 2.13925 19.0769 2.02129 19.1932C1.90333 19.3095 1.80966 19.4481 1.74572 19.6009C1.68179 19.7537 1.64886 19.9177 1.64886 20.0834C1.64886 20.249 1.68179 20.413 1.74572 20.5659C1.80966 20.7187 1.90333 20.8573 2.02129 20.9736C2.13925 21.0899 2.27915 21.1816 2.43286 21.2434C2.58657 21.3051 2.75103 21.3357 2.91667 21.3334H8.75C8.91564 21.3357 9.08009 21.3051 9.23381 21.2434C9.38752 21.1816 9.52742 21.0899 9.64538 20.9736C9.76334 20.8573 9.85701 20.7187 9.92095 20.5659C9.98488 20.413 10.0178 20.249 10.0178 20.0834C10.0178 19.9177 9.98488 19.7537 9.92095 19.6009C9.85701 19.4481 9.76334 19.3095 9.64538 19.1932C9.52742 19.0769 9.38752 18.9852 9.23381 18.9234C9.08009 18.8616 8.91564 18.831 8.75 18.8334H2.91667ZM26.6667 21.3334H35.8219C35.8255 21.3713 35.8333 21.4094 35.8333 21.4473V26.75C35.8333 27.4555 35.2887 28 34.5833 28H33.9876C33.4381 26.0847 31.6664 24.6667 29.5833 24.6667C28.4783 24.6667 27.4614 25.0661 26.6667 25.7263V21.3334ZM10.4167 27.1667C11.5406 27.1667 12.4287 28.0274 12.4886 29.1345C12.4815 29.2114 12.4815 29.2887 12.4886 29.3656C12.4287 30.4727 11.5406 31.3334 10.4167 31.3334C9.29271 31.3334 8.4046 30.4727 8.34473 29.3656C8.35186 29.2887 8.35186 29.2114 8.34473 29.1345C8.4046 28.0274 9.29271 27.1667 10.4167 27.1667ZM29.5833 27.1667C30.747 27.1667 31.6667 28.0864 31.6667 29.25C31.6667 30.4137 30.747 31.3334 29.5833 31.3334C28.4197 31.3334 27.5 30.4137 27.5 29.25C27.5 28.0864 28.4197 27.1667 29.5833 27.1667Z" fill="#912A66"/>
</svg>
