<svg width="41" height="41" viewBox="0 0 41 41" fill="none" xmlns="http://www.w3.org/2000/svg">
<path d="M20.5 3.83337C15.0519 3.83337 10.2091 6.4594 7.16666 10.5131V8.41671C7.16906 8.2494 7.13785 8.08332 7.07488 7.9283C7.01191 7.77328 6.91846 7.63248 6.80007 7.51424C6.68168 7.396 6.54076 7.30273 6.38566 7.23996C6.23056 7.17719 6.06443 7.14619 5.89713 7.1488C5.5659 7.15398 5.25026 7.29042 5.01954 7.52815C4.78883 7.76588 4.66191 8.08546 4.66666 8.41671V13.4167C4.6667 13.7482 4.7984 14.0661 5.03282 14.3006C5.26723 14.535 5.58515 14.6667 5.91666 14.6667H10.9167C11.0823 14.6691 11.2468 14.6384 11.4005 14.5767C11.5542 14.5149 11.6941 14.4232 11.812 14.3069C11.93 14.1906 12.0237 14.052 12.0876 13.8992C12.1515 13.7464 12.1845 13.5824 12.1845 13.4167C12.1845 13.2511 12.1515 13.087 12.0876 12.9342C12.0237 12.7814 11.93 12.6428 11.812 12.5265C11.6941 12.4102 11.5542 12.3185 11.4005 12.2567C11.2468 12.195 11.0823 12.1644 10.9167 12.1667H9.04655C11.6206 8.63356 15.7836 6.33337 20.5 6.33337C28.3386 6.33337 34.6667 12.6615 34.6667 20.5C34.6667 28.2021 28.5545 34.444 20.9085 34.6602C20.7444 34.6649 20.5828 34.7019 20.4329 34.7691C20.283 34.8362 20.1479 34.9322 20.0351 35.0516C19.9224 35.171 19.8343 35.3115 19.7758 35.4649C19.7173 35.6184 19.6896 35.7819 19.6943 35.946C19.699 36.1102 19.736 36.2718 19.8032 36.4216C19.8703 36.5715 19.9664 36.7067 20.0858 36.8194C20.2052 36.9322 20.3456 37.0203 20.4991 37.0788C20.6525 37.1372 20.816 37.1649 20.9801 37.1602C29.9525 36.9064 37.1667 29.5296 37.1667 20.5C37.1667 11.3103 29.6898 3.83337 20.5 3.83337ZM20.0638 9.6488C19.7326 9.65398 19.4169 9.79042 19.1862 10.0281C18.9555 10.2659 18.8286 10.5855 18.8333 10.9167V11.877C16.5065 12.1987 14.6667 14.1314 14.6667 16.5417C14.6667 19.1732 16.8268 21.3334 19.4583 21.3334H21.125C22.6351 21.3334 23.8333 22.5316 23.8333 24.0417C23.8333 25.5518 22.6351 26.75 21.125 26.75H19.25C18.2685 26.75 17.4658 26.0863 17.2334 25.1941C17.1958 25.0313 17.1259 24.8777 17.0279 24.7424C16.9299 24.607 16.8058 24.4927 16.6629 24.4062C16.52 24.3196 16.3611 24.2626 16.1958 24.2385C16.0305 24.2144 15.862 24.2237 15.7003 24.2658C15.5386 24.3079 15.387 24.382 15.2545 24.4837C15.1219 24.5854 15.0111 24.7126 14.9285 24.8579C14.846 25.0031 14.7934 25.1635 14.7738 25.3294C14.7543 25.4953 14.7682 25.6635 14.8148 25.8239C15.2937 27.6626 16.9053 28.9982 18.8333 29.1801V30.0834C18.831 30.249 18.8616 30.4135 18.9234 30.5672C18.9851 30.7209 19.0768 30.8608 19.1931 30.9788C19.3094 31.0967 19.448 31.1904 19.6008 31.2543C19.7537 31.3183 19.9177 31.3512 20.0833 31.3512C20.249 31.3512 20.413 31.3183 20.5658 31.2543C20.7186 31.1904 20.8572 31.0967 20.9735 30.9788C21.0898 30.8608 21.1815 30.7209 21.2433 30.5672C21.3051 30.4135 21.3357 30.249 21.3333 30.0834V29.2077C24.0942 29.0911 26.3333 26.8296 26.3333 24.0417C26.3333 21.1801 23.9866 18.8334 21.125 18.8334H19.4583C18.1782 18.8334 17.1667 17.8219 17.1667 16.5417C17.1667 15.2616 18.1782 14.25 19.4583 14.25H19.8783C20.0124 14.2721 20.1493 14.2721 20.2835 14.25H20.9167C21.891 14.25 22.6899 14.9057 22.9284 15.7881C22.9712 15.9466 23.0448 16.0952 23.1451 16.2252C23.2453 16.3553 23.3702 16.4643 23.5126 16.5461C23.655 16.6279 23.8121 16.6808 23.9749 16.7019C24.1377 16.723 24.3031 16.7118 24.4617 16.6689C24.6202 16.626 24.7687 16.5524 24.8987 16.4521C25.0287 16.3519 25.1378 16.227 25.2195 16.0846C25.3013 15.9422 25.3542 15.7851 25.3752 15.6222C25.3963 15.4594 25.385 15.294 25.3421 15.1355C24.8505 13.3164 23.2475 12.0003 21.3333 11.82V10.9167C21.3357 10.7494 21.3045 10.5833 21.2415 10.4283C21.1786 10.2733 21.0851 10.1325 20.9667 10.0142C20.8483 9.896 20.7074 9.80273 20.5523 9.73996C20.3972 9.67719 20.2311 9.64619 20.0638 9.6488ZM5.11588 18.8578C4.42422 18.8411 3.85 19.3917 3.83333 20.0834C3.81666 20.775 4.36725 21.3411 5.05892 21.3578H5.08333C5.75833 21.3578 6.31666 20.8253 6.33333 20.142C6.35 19.4503 5.80755 18.8745 5.11588 18.8578ZM5.64811 23.7992C5.56557 23.8076 5.48301 23.8236 5.40071 23.8497C4.74238 24.0497 4.36738 24.7506 4.56738 25.4089C4.73405 25.9506 5.22526 26.2911 5.76692 26.2911C5.88359 26.2911 6.00814 26.2756 6.13314 26.2422C6.79147 26.0339 7.15833 25.3332 6.95833 24.6748C6.78333 24.0988 6.22586 23.7404 5.64811 23.7992ZM7.9414 28.2507C7.70083 28.2579 7.45905 28.3334 7.24967 28.4834C6.69134 28.8918 6.55814 29.6664 6.96647 30.2331C7.20814 30.5664 7.59205 30.7507 7.98372 30.7507C8.23372 30.7507 8.49134 30.6747 8.708 30.5163C9.26634 30.108 9.39954 29.3333 8.99121 28.7666C8.74121 28.4177 8.34236 28.2387 7.9414 28.2507ZM11.5384 31.7663C11.1371 31.7551 10.7389 31.9379 10.4837 32.292C10.0837 32.8504 10.2084 33.6336 10.7751 34.0336H10.7669C10.9919 34.1919 11.2493 34.2663 11.4993 34.2663C11.8827 34.2663 12.2666 34.092 12.5166 33.7504C12.9166 33.192 12.7917 32.409 12.2334 32.0007C12.0209 31.8507 11.7792 31.7731 11.5384 31.7663ZM15.832 33.9896C15.3477 34.0381 14.9141 34.3732 14.7578 34.8669C14.5578 35.5252 14.9247 36.2243 15.583 36.4327C15.708 36.466 15.834 36.4831 15.959 36.4831C16.4923 36.4831 16.9837 36.141 17.1504 35.5993C17.3504 34.941 16.9835 34.2417 16.3252 34.0417C16.1606 33.9896 15.9935 33.9735 15.832 33.9896Z" fill="#912A66"/>
</svg>
